<mxfile host="app.diagrams.net" modified="2023-05-26T08:29:00.195Z" agent="Mozilla/5.0 (Macintosh; Intel Mac OS X 10_15_7) AppleWebKit/605.1.15 (KHTML, like Gecko) Version/16.4 Safari/605.1.15" etag="N8csUQSMcr1MwVKokFtY" version="21.3.4">
  <diagram name="Page-1" id="p_ReuEUuZX92ZAUJS2A1">
    <mxGraphModel dx="1068" dy="800" grid="1" gridSize="10" guides="1" tooltips="1" connect="1" arrows="1" fold="1" page="1" pageScale="1" pageWidth="827" pageHeight="1169" math="0" shadow="0">
      <root>
        <mxCell id="0" />
        <mxCell id="1" parent="0" />
        <mxCell id="TbzvGz38YFTLobrml-YF-21" style="edgeStyle=orthogonalEdgeStyle;rounded=0;orthogonalLoop=1;jettySize=auto;html=1;exitX=0.5;exitY=1;exitDx=0;exitDy=0;entryX=0.5;entryY=0;entryDx=0;entryDy=0;" edge="1" parent="1" source="TbzvGz38YFTLobrml-YF-1" target="TbzvGz38YFTLobrml-YF-3">
          <mxGeometry relative="1" as="geometry" />
        </mxCell>
        <mxCell id="TbzvGz38YFTLobrml-YF-22" style="edgeStyle=orthogonalEdgeStyle;rounded=0;orthogonalLoop=1;jettySize=auto;html=1;exitX=0.5;exitY=1;exitDx=0;exitDy=0;entryX=0.5;entryY=0;entryDx=0;entryDy=0;" edge="1" parent="1" source="TbzvGz38YFTLobrml-YF-1" target="TbzvGz38YFTLobrml-YF-4">
          <mxGeometry relative="1" as="geometry" />
        </mxCell>
        <mxCell id="TbzvGz38YFTLobrml-YF-23" style="edgeStyle=orthogonalEdgeStyle;rounded=0;orthogonalLoop=1;jettySize=auto;html=1;exitX=0.5;exitY=1;exitDx=0;exitDy=0;entryX=0.5;entryY=0;entryDx=0;entryDy=0;" edge="1" parent="1" source="TbzvGz38YFTLobrml-YF-1" target="TbzvGz38YFTLobrml-YF-2">
          <mxGeometry relative="1" as="geometry" />
        </mxCell>
        <mxCell id="TbzvGz38YFTLobrml-YF-1" value="Surveysphere" style="html=1;whiteSpace=wrap;fillColor=#ffe6cc;strokeColor=#d79b00;" vertex="1" parent="1">
          <mxGeometry x="359" y="280" width="110" height="50" as="geometry" />
        </mxCell>
        <mxCell id="TbzvGz38YFTLobrml-YF-25" value="" style="edgeStyle=orthogonalEdgeStyle;rounded=0;orthogonalLoop=1;jettySize=auto;html=1;" edge="1" parent="1" source="TbzvGz38YFTLobrml-YF-2" target="TbzvGz38YFTLobrml-YF-24">
          <mxGeometry relative="1" as="geometry">
            <Array as="points">
              <mxPoint x="660" y="505" />
            </Array>
          </mxGeometry>
        </mxCell>
        <mxCell id="TbzvGz38YFTLobrml-YF-27" value="" style="edgeStyle=orthogonalEdgeStyle;rounded=0;orthogonalLoop=1;jettySize=auto;html=1;" edge="1" parent="1" source="TbzvGz38YFTLobrml-YF-2" target="TbzvGz38YFTLobrml-YF-26">
          <mxGeometry relative="1" as="geometry">
            <Array as="points">
              <mxPoint x="660" y="585" />
            </Array>
          </mxGeometry>
        </mxCell>
        <mxCell id="TbzvGz38YFTLobrml-YF-29" value="" style="edgeStyle=orthogonalEdgeStyle;rounded=0;orthogonalLoop=1;jettySize=auto;html=1;" edge="1" parent="1" source="TbzvGz38YFTLobrml-YF-2" target="TbzvGz38YFTLobrml-YF-28">
          <mxGeometry relative="1" as="geometry">
            <Array as="points">
              <mxPoint x="660" y="665" />
            </Array>
          </mxGeometry>
        </mxCell>
        <mxCell id="TbzvGz38YFTLobrml-YF-31" value="" style="edgeStyle=orthogonalEdgeStyle;rounded=0;orthogonalLoop=1;jettySize=auto;html=1;" edge="1" parent="1" source="TbzvGz38YFTLobrml-YF-2" target="TbzvGz38YFTLobrml-YF-30">
          <mxGeometry relative="1" as="geometry">
            <Array as="points">
              <mxPoint x="660" y="745" />
            </Array>
          </mxGeometry>
        </mxCell>
        <mxCell id="TbzvGz38YFTLobrml-YF-2" value="Backend" style="html=1;whiteSpace=wrap;fillColor=#dae8fc;strokeColor=#6c8ebf;" vertex="1" parent="1">
          <mxGeometry x="600" y="400" width="110" height="50" as="geometry" />
        </mxCell>
        <mxCell id="TbzvGz38YFTLobrml-YF-6" value="" style="edgeStyle=orthogonalEdgeStyle;rounded=0;orthogonalLoop=1;jettySize=auto;html=1;" edge="1" parent="1" source="TbzvGz38YFTLobrml-YF-3" target="TbzvGz38YFTLobrml-YF-5">
          <mxGeometry relative="1" as="geometry">
            <Array as="points">
              <mxPoint x="225" y="505" />
            </Array>
          </mxGeometry>
        </mxCell>
        <mxCell id="TbzvGz38YFTLobrml-YF-8" value="" style="edgeStyle=orthogonalEdgeStyle;rounded=0;orthogonalLoop=1;jettySize=auto;html=1;" edge="1" parent="1" source="TbzvGz38YFTLobrml-YF-3" target="TbzvGz38YFTLobrml-YF-7">
          <mxGeometry relative="1" as="geometry">
            <Array as="points">
              <mxPoint x="225" y="585" />
            </Array>
          </mxGeometry>
        </mxCell>
        <mxCell id="TbzvGz38YFTLobrml-YF-10" value="" style="edgeStyle=orthogonalEdgeStyle;rounded=0;orthogonalLoop=1;jettySize=auto;html=1;" edge="1" parent="1" source="TbzvGz38YFTLobrml-YF-3" target="TbzvGz38YFTLobrml-YF-9">
          <mxGeometry relative="1" as="geometry">
            <Array as="points">
              <mxPoint x="225" y="665" />
            </Array>
          </mxGeometry>
        </mxCell>
        <mxCell id="TbzvGz38YFTLobrml-YF-12" value="" style="edgeStyle=orthogonalEdgeStyle;rounded=0;orthogonalLoop=1;jettySize=auto;html=1;" edge="1" parent="1" source="TbzvGz38YFTLobrml-YF-3" target="TbzvGz38YFTLobrml-YF-11">
          <mxGeometry relative="1" as="geometry">
            <Array as="points">
              <mxPoint x="225" y="745" />
            </Array>
          </mxGeometry>
        </mxCell>
        <mxCell id="TbzvGz38YFTLobrml-YF-3" value="Frontend" style="html=1;whiteSpace=wrap;fillColor=#dae8fc;strokeColor=#6c8ebf;" vertex="1" parent="1">
          <mxGeometry x="170" y="400" width="110" height="50" as="geometry" />
        </mxCell>
        <mxCell id="TbzvGz38YFTLobrml-YF-14" value="" style="edgeStyle=orthogonalEdgeStyle;rounded=0;orthogonalLoop=1;jettySize=auto;html=1;" edge="1" parent="1" source="TbzvGz38YFTLobrml-YF-4" target="TbzvGz38YFTLobrml-YF-13">
          <mxGeometry relative="1" as="geometry">
            <Array as="points">
              <mxPoint x="415" y="500" />
            </Array>
          </mxGeometry>
        </mxCell>
        <mxCell id="TbzvGz38YFTLobrml-YF-16" value="" style="edgeStyle=orthogonalEdgeStyle;rounded=0;orthogonalLoop=1;jettySize=auto;html=1;" edge="1" parent="1" source="TbzvGz38YFTLobrml-YF-4" target="TbzvGz38YFTLobrml-YF-15">
          <mxGeometry relative="1" as="geometry">
            <Array as="points">
              <mxPoint x="415" y="580" />
            </Array>
          </mxGeometry>
        </mxCell>
        <mxCell id="TbzvGz38YFTLobrml-YF-18" value="" style="edgeStyle=orthogonalEdgeStyle;rounded=0;orthogonalLoop=1;jettySize=auto;html=1;" edge="1" parent="1" source="TbzvGz38YFTLobrml-YF-4" target="TbzvGz38YFTLobrml-YF-17">
          <mxGeometry relative="1" as="geometry">
            <Array as="points">
              <mxPoint x="415" y="500" />
            </Array>
          </mxGeometry>
        </mxCell>
        <mxCell id="TbzvGz38YFTLobrml-YF-20" value="" style="edgeStyle=orthogonalEdgeStyle;rounded=0;orthogonalLoop=1;jettySize=auto;html=1;entryX=1;entryY=0.5;entryDx=0;entryDy=0;" edge="1" parent="1" source="TbzvGz38YFTLobrml-YF-4" target="TbzvGz38YFTLobrml-YF-19">
          <mxGeometry relative="1" as="geometry">
            <Array as="points">
              <mxPoint x="415" y="580" />
              <mxPoint x="390" y="580" />
            </Array>
          </mxGeometry>
        </mxCell>
        <mxCell id="TbzvGz38YFTLobrml-YF-4" value="Support" style="html=1;whiteSpace=wrap;fillColor=#dae8fc;strokeColor=#6c8ebf;" vertex="1" parent="1">
          <mxGeometry x="360" y="400" width="110" height="50" as="geometry" />
        </mxCell>
        <mxCell id="TbzvGz38YFTLobrml-YF-5" value="UI/UX Design" style="html=1;whiteSpace=wrap;fillColor=#d5e8d4;strokeColor=#82b366;" vertex="1" parent="1">
          <mxGeometry x="50" y="480" width="110" height="50" as="geometry" />
        </mxCell>
        <mxCell id="TbzvGz38YFTLobrml-YF-7" value="Pages Designen" style="html=1;whiteSpace=wrap;fillColor=#d5e8d4;strokeColor=#82b366;" vertex="1" parent="1">
          <mxGeometry x="50" y="560" width="110" height="50" as="geometry" />
        </mxCell>
        <mxCell id="TbzvGz38YFTLobrml-YF-9" value="NodeJs Anbindung" style="html=1;whiteSpace=wrap;fillColor=#d5e8d4;strokeColor=#82b366;" vertex="1" parent="1">
          <mxGeometry x="50" y="640" width="110" height="50" as="geometry" />
        </mxCell>
        <mxCell id="TbzvGz38YFTLobrml-YF-11" value="Testing" style="html=1;whiteSpace=wrap;fillColor=#d5e8d4;strokeColor=#82b366;" vertex="1" parent="1">
          <mxGeometry x="50" y="720" width="110" height="50" as="geometry" />
        </mxCell>
        <mxCell id="TbzvGz38YFTLobrml-YF-13" value="(Security-)Updates" style="html=1;whiteSpace=wrap;fillColor=#d5e8d4;strokeColor=#82b366;" vertex="1" parent="1">
          <mxGeometry x="440" y="480" width="110" height="50" as="geometry" />
        </mxCell>
        <mxCell id="TbzvGz38YFTLobrml-YF-15" value="Fehlerbehebung" style="html=1;whiteSpace=wrap;fillColor=#d5e8d4;strokeColor=#82b366;" vertex="1" parent="1">
          <mxGeometry x="440" y="560" width="110" height="50" as="geometry" />
        </mxCell>
        <mxCell id="TbzvGz38YFTLobrml-YF-17" value="Einarbeitung Externer" style="html=1;whiteSpace=wrap;fillColor=#d5e8d4;strokeColor=#82b366;" vertex="1" parent="1">
          <mxGeometry x="280" y="480" width="110" height="50" as="geometry" />
        </mxCell>
        <mxCell id="TbzvGz38YFTLobrml-YF-19" value="Lizenzverwaltung" style="html=1;whiteSpace=wrap;fillColor=#d5e8d4;strokeColor=#82b366;" vertex="1" parent="1">
          <mxGeometry x="280" y="560" width="110" height="50" as="geometry" />
        </mxCell>
        <mxCell id="TbzvGz38YFTLobrml-YF-24" value="Database" style="html=1;whiteSpace=wrap;fillColor=#d5e8d4;strokeColor=#82b366;" vertex="1" parent="1">
          <mxGeometry x="720" y="480" width="110" height="50" as="geometry" />
        </mxCell>
        <mxCell id="TbzvGz38YFTLobrml-YF-26" value="Backendlogic (Nodejs)" style="html=1;whiteSpace=wrap;fillColor=#d5e8d4;strokeColor=#82b366;" vertex="1" parent="1">
          <mxGeometry x="720" y="560" width="110" height="50" as="geometry" />
        </mxCell>
        <mxCell id="TbzvGz38YFTLobrml-YF-28" value="Tests" style="html=1;whiteSpace=wrap;fillColor=#d5e8d4;strokeColor=#82b366;" vertex="1" parent="1">
          <mxGeometry x="720" y="640" width="110" height="50" as="geometry" />
        </mxCell>
        <mxCell id="TbzvGz38YFTLobrml-YF-30" value="Infrastructure Setup" style="html=1;whiteSpace=wrap;fillColor=#d5e8d4;strokeColor=#82b366;" vertex="1" parent="1">
          <mxGeometry x="720" y="720" width="110" height="50" as="geometry" />
        </mxCell>
      </root>
    </mxGraphModel>
  </diagram>
</mxfile>
